<?xml version="1.0" encoding="utf-8"?>
<!-- Generator: Adobe Illustrator 22.0.1, SVG Export Plug-In . SVG Version: 6.00 Build 0)  -->
<svg version="1.1" id="Layer_1" xmlns="http://www.w3.org/2000/svg" xmlns:xlink="http://www.w3.org/1999/xlink" x="0px" y="0px"
	 viewBox="0 0 236 74.2" style="enable-background:new 0 0 236 74.2;" xml:space="preserve">
<style type="text/css">
	.st0{fill:#4E0C15;}
	.st1{fill:#D2030F;}
	.st2{fill:#000101;}
	.st3{fill:#AF967D;}
	.st4{fill:#A8682A;}
	.st5{fill:#DAB796;}
	.st6{fill:#F0D0B1;}
	.st7{fill:#3F2409;}
</style>
<g transform="matrix( 0.814605712890625, -0.03106689453125, 0.0331573486328125, 0.8704681396484375, 173.75,179.55) ">
	<g transform="matrix( 1, 0, 0, 1, 0,0) ">
		<g>
			<g id="FLAN_ARM_0_Layer0_0_FILL">
				<path class="st0" d="M-163.5-150.8c0.2-0.9,0.5-2.1,0.8-3.6c-4.2,0.6-8,1.2-11.4,1.8c-0.5,3.2-0.8,5.7-1.1,7.6
					c0.9,0.7,1.7,1.5,2.5,2.2c2.1-0.9,4.8-1.3,7.9-1.3C-164.5-146.2-164-148.4-163.5-150.8 M-172.7-162.1
					C-172.7-162.1-172.7-162.1-172.7-162.1c-6.5,0.8-11.7,1.5-15.8,2.1c0.3,1,0.7,2.2,1.4,3.8c0,2.1,1.1,3.8,3.3,5.2l0.1,0.1
					c2.8-0.5,6-1,9.6-1.5C-173.7-155.3-173.2-158.5-172.7-162.1 M-170.8-173.2c0.2-1.3,0.4-2.5,0.6-3.7l-7.6,1.8
					c-1.3,0-2.8,0.7-4.3,2.1C-178.2-173-174.4-173.1-170.8-173.2 M-158.2-173.4c-1.2,0-2.5,0-3.8,0.1c-2.8,0-5.7,0.1-8.8,0.1
					c-0.6,3.2-1.2,6.9-1.8,11c2.3-0.3,4.7-0.7,7.3-1.1c1.2-0.2,2.3-0.3,3.4-0.4c0.5-0.1,1-0.1,1.5-0.2
					C-159.8-166.6-159-169.8-158.2-173.4 M-139.5-157.8c-0.1,1.5-0.3,3-0.4,4.6c-0.2,3-0.4,6.1-0.4,9.3c1.4-0.3,4-0.8,7.7-1.6
					c5.2-1.1,10.4-1.9,15.6-2.7c-0.4-4.5-0.8-8.7-1.1-12.7C-123.9-160.1-131-159.1-139.5-157.8 M-139.5-157.8
					c0.2-2.8,0.4-5.4,0.5-7.8c-4.9,0.5-7.6,0.8-8.1,0.8c-3.2,0-7.7,0.3-13.4,1c-0.6,2.3-1.1,4.4-1.5,6.3c-0.3,1.2-0.5,2.3-0.8,3.3
					c0.2-0.1,0.5-0.1,0.8-0.2c3.4-0.5,7-1,10.9-1.6C-147-156.7-143.1-157.3-139.5-157.8 M-138.4-173.8c0-0.3,0.1-0.6,0.1-0.9
					l-19.1-1.6c-0.3,1-0.5,2-0.8,2.9C-149.6-173.5-143-173.7-138.4-173.8 M-120.1-174.2c-0.2,0-0.3,0-0.4,0.1
					c-2.4,0.5-5.7,0.6-10.1,0.2l-5.4,0.1c-0.7,0-1.5,0.1-2.4,0.1c-0.2,2.4-0.4,5.1-0.6,8.2c4.7-0.5,11.4-1.3,20.2-2.3
					c-0.2-2.2-0.4-4.3-0.6-6.3L-120.1-174.2 M-100.7-162.7c0.8,0,1.8-0.1,2.9-0.2c-0.2-2.3-0.4-4.8-0.7-7.5
					c-5.2,0.6-10.6,1.3-16.3,1.9c-1.4,0.2-2.7,0.3-3.9,0.5c0.2,2.3,0.4,4.6,0.7,7.1C-108.9-162.1-103.2-162.7-100.7-162.7
					 M-92.1-163.9c-2.2,0.5-4.1,0.9-5.7,1.1c0.2,2.9,0.3,5.5,0.3,7.9c0,0.6-0.1,2.2-0.2,5c3.4-0.2,6.9-0.3,10.3-0.4
					c0.6,0,1.2,0,1.8,0c0-0.2-0.1-0.5-0.1-0.8c-0.2-2.1-0.1-4.6,0.3-7.4c0.2-1.5,0.5-2.8,0.7-4c0.1-1,0.3-1.9,0.4-2.8
					c-0.1,0-0.1,0-0.2,0C-85.9-165.2-88.4-164.8-92.1-163.9 M-98.9-174.8c-0.1-0.5-0.1-1.1-0.2-1.6c-2.2-0.3-4-0.5-5.2-0.6
					c-2.7-0.3-5-0.3-6.9,0.1c-1.1,0.2-2.6,0.6-4.6,1.3c-1.4,0.5-2.6,0.9-3.5,1.1c0,0,0,0.1,0,0.2L-98.9-174.8 M-83.8-174.6
					c0-0.4,0.1-0.9,0.1-1.3c-6.5,0.7-10.8,1.1-12.8,1.1l-2.4,0.1c0.1,1.2,0.2,2.3,0.3,3.5c0,0.3,0.1,0.6,0.1,0.9
					c5.1-0.6,10-1.2,14.6-1.8L-83.8-174.6 M-83.8-152c0,1,0.2,1.8,0.3,2.6c0.4,1.3,0.5,2.2,0.4,2.7c0,0.2-0.2,0.6-0.4,1
					c-0.1,0.4-0.1,0.7,0.1,0.9c0.1,0.2,0.4,0.4,0.9,0.5c3,0.8,5.4,1.2,7.1,1c0.3,0,0.7-0.1,1.2-0.1c0.1-1.1,0.1-2.3,0.2-3.4
					c0-0.1,0-0.1,0.1-0.2c-0.8,0.1-1.4,0-1.8-0.1c-0.5-0.2-0.8-0.5-1.1-0.9c-0.3-0.3-0.5-0.7-0.6-1c-0.1-0.3-0.1-0.5,0-0.8
					c0-0.3,0-0.7,0.1-1c0.1-0.3,0.4-0.6,0.8-1.1c0.2-0.2,0.5-0.9,0.8-1.9c0.3-0.6,0.6-0.9,0.9-0.9c0.1,0,0.4,0,0.9,0.1
					c0.1,0,0.2,0,0.3,0.1c0,0,0.1,0,0.1,0c0-0.8,0.1-1.5,0.2-2.3c-0.1,0-0.2,0.1-0.3,0.1C-76.9-155.2-80.3-153.6-83.8-152
					 M-72.3-177c1.3-0.6,2.2-1,2.8-1.3c-0.7-0.5-1.6-1-2.7-1.4C-72.3-178.8-72.3-177.9-72.3-177 M-72.3-177
					c-0.4,0.2-0.8,0.3-1.2,0.6c-2.1,1-4.8,2.2-8.3,3.8c0,0.1,0,0.2,0,0.3c0,0.4-0.1,0.8-0.1,1.2l-0.9,7.6c3.8-2.1,6.9-3.8,9.2-4.9
					c0.3-0.2,0.6-0.3,0.9-0.4C-72.5-171.7-72.4-174.4-72.3-177 M-66.8-167.7c-0.1-1.3-0.2-2.7-0.3-4c-1.3,0.6-2.4,1.1-3.4,1.5
					c-0.6,0.3-1.3,0.7-2.2,1.2c-0.2,3.8-0.4,7.9-0.6,12.1c1.9-0.9,3.8-1.9,5.8-2.8c0.3-0.1,0.6-0.3,0.8-0.4
					C-66.6-162.6-66.7-165.1-66.8-167.7z"/>
				<path class="st1" d="M-174.1-152.6c-3.7,0.5-6.9,1-9.6,1.5c3.2,2,6.1,4,8.6,6.1C-174.9-146.9-174.6-149.4-174.1-152.6
					 M-170.8-173.2c-3.6,0.1-7.4,0.1-11.4,0.2c-0.8,0.7-1.6,1.5-2.4,2.4c-2.7,3.2-4.1,6.2-4.1,9.1c0,0.4,0.1,0.8,0.2,1.4
					c4.1-0.6,9.3-1.3,15.8-2.1h0C-172-166.3-171.4-169.9-170.8-173.2 M-147-164.8c0.5,0,3.2-0.3,8.1-0.8c0.2-3.1,0.4-5.8,0.6-8.2
					c-4.7,0.1-11.3,0.3-19.8,0.4c-0.9,3.6-1.6,6.8-2.3,9.6C-154.7-164.5-150.2-164.8-147-164.8 M-139.9-153.2
					c0.1-1.6,0.2-3.1,0.4-4.6c-3.6,0.5-7.4,1.1-11.5,1.7c-3.9,0.6-7.6,1.1-10.9,1.6c-0.3,0-0.5,0.1-0.8,0.2
					c-0.3,1.5-0.6,2.6-0.8,3.6c-0.5,2.3-0.9,4.6-1.3,6.7c0.9,0,1.8,0,2.8,0.1c0.7,0.1,2.6,0.3,5.8,0.6c2.4,0.3,4.3,0.4,5.8,0.5
					c2.6,0,5.5-0.2,8.9-0.8c0.2,0,0.6-0.1,1.1-0.2C-140.3-147.1-140.1-150.2-139.9-153.2 M-98.5-170.4c0-0.3-0.1-0.6-0.1-0.9
					c-0.1-1.2-0.3-2.3-0.3-3.5l-20.4,0.5c0.2,2,0.4,4.1,0.6,6.3c1.2-0.1,2.5-0.3,3.9-0.5C-109.1-169.1-103.7-169.7-98.5-170.4
					 M-97.7-150c0.1-2.8,0.2-4.4,0.2-5c0-2.4-0.1-5-0.3-7.9c-1.1,0.1-2.1,0.2-2.9,0.2c-2.4,0-8.2,0.6-17.3,1.8
					c0.3,4,0.7,8.2,1.1,12.7C-110.6-149-104.2-149.6-97.7-150 M-72.6-169c-0.3,0.1-0.6,0.3-0.9,0.4c-2.3,1.2-5.4,2.9-9.2,4.9l-0.8,6
					c-0.3,2.2-0.4,4.1-0.3,5.6c3.5-1.6,7-3.2,10.3-4.8c0.1,0,0.1-0.1,0.3-0.1C-73-161.1-72.8-165.1-72.6-169 M-81.4-178.1
					c0,0.6-0.1,1.3-0.2,2.1c-0.1,1-0.1,2.1-0.2,3.4c3.4-1.6,6.2-2.8,8.3-3.8c0.4-0.2,0.8-0.4,1.2-0.6c0-0.9,0.1-1.9,0.1-2.8
					c-0.1,0-0.2-0.1-0.3-0.1c-0.3-0.1-0.7-0.3-1-0.3c-3.1-1.1-5.5-1.8-7.2-1.9C-81.1-181-81.4-179.7-81.4-178.1z"/>
				<path class="st2" d="M-172.7-162.2C-172.7-162.1-172.7-162.1-172.7-162.2c-0.6,3.7-1.1,6.9-1.4,9.6c3.4-0.5,7.2-1.1,11.4-1.8
					c0.2-1,0.5-2.1,0.8-3.3c0.4-1.8,0.9-3.9,1.5-6.3c-0.5,0.1-1,0.1-1.5,0.2c-1.1,0.1-2.2,0.2-3.4,0.4
					C-167.9-162.8-170.4-162.5-172.7-162.2L-172.7-162.2 M-158.2-173.4c0.2-1,0.5-1.9,0.8-2.9l-9.9-0.9c-0.5,0-0.9-0.2-1.3-0.4h-0.1
					c-0.5,0.3-0.8,0.5-0.9,0.5l-0.7,0.2c-0.2,1.2-0.4,2.4-0.6,3.7c3.1-0.1,6.1-0.1,8.8-0.1C-160.7-173.3-159.4-173.4-158.2-173.4
					 M-139-165.6c-0.2,2.4-0.3,5-0.5,7.8c8.5-1.3,15.6-2.3,21.4-3.1c-0.2-2.5-0.4-4.8-0.7-7.1C-127.5-166.9-134.3-166.1-139-165.6
					 M-136-173.9l5.4-0.1c-0.2,0-0.5-0.1-0.8-0.1l-6.9-0.6c0,0.3,0,0.6-0.1,0.9C-137.5-173.8-136.8-173.8-136-173.9 M-97.8-162.9
					c1.6-0.2,3.5-0.6,5.7-1.1c3.7-0.9,6.2-1.3,7.5-1.3c0.1,0,0.1,0,0.2,0c0.1-0.9,0.2-1.6,0.3-2.3l0.3-4.6
					c-4.6,0.6-9.5,1.2-14.6,1.8C-98.2-167.7-98-165.2-97.8-162.9 M-83.7-175.9c0-0.3,0-0.5,0.1-0.8c-4.6,0.8-9.2,0.9-13.7,0.5
					c-0.6-0.1-1.2-0.1-1.8-0.2c0,0.5,0.1,1,0.2,1.6l2.4-0.1C-94.5-174.8-90.2-175.2-83.7-175.9 M-67-151.6c0.2-2.8,0.3-5.6,0.3-8.4
					c-0.3,0.1-0.5,0.3-0.8,0.4c-1.9,0.9-3.8,1.8-5.8,2.8c-0.1,0.7-0.1,1.5-0.2,2.3c0.5,0.1,0.8,0.1,0.9,0.1c0.5,0.1,1.1,0.5,1.8,1
					c0.2,0.2,0.4,0.3,0.5,0.5c-0.3,2-0.6,3.4-0.9,4.4c-0.1,0.4-0.2,0.7-0.3,0.9c-0.6,0.3-1.3,0.5-2.1,0.7c-0.1,0-0.3,0-0.4,0
					c0,0.1-0.1,0.1-0.1,0.2c-0.1,1.1-0.1,2.3-0.2,3.4c0.2-0.1,0.4-0.1,0.7-0.1c1-0.2,2.1-0.6,3.4-1c1-0.2,1.7-0.5,2.1-0.9
					c0.3-0.4,0.5-1.1,0.6-1.9c0.1-0.8,0.2-1.6,0.3-2.4l-0.3,0.1C-67.2-150.2-67.1-150.9-67-151.6L-67-151.6 M-66.9-172.9
					c-0.1-0.2-0.2-0.4-0.3-0.6c0-0.1,0-0.3-0.1-0.4c0,0-0.1,0-0.1,0c0-0.1,0-0.2,0-0.3c0-0.1,0-0.1,0-0.2c-0.1-0.6-0.2-1-0.5-1.1
					c-0.1-0.1-0.3-0.2-0.4-0.3c0.2,0,0.3,0,0.5,0c0,0,0.1,0,0.2,0.1c-0.2-0.5-0.3-0.9-0.6-1.2c-0.3-0.5-0.8-0.9-1.3-1.4
					c-0.6,0.3-1.5,0.7-2.8,1.3c-0.1,2.6-0.2,5.2-0.3,8c0.9-0.5,1.6-0.9,2.2-1.2c1-0.5,2.1-1,3.4-1.5c0-0.1,0-0.1,0-0.2
					c0,0,0-0.1,0-0.1C-66.9-172.3-66.9-172.6-66.9-172.9z"/>
				<path d="M56.1-192.5c-0.2-1.6-0.5-2.7-1-3.4c-0.4-0.7-1-1.1-1.8-1.4c-0.8-0.3-1.6-0.3-2.4-0.1c-1,0.3-2.1,1.3-3.4,2.9
					c-0.2,0.2-0.4,0.4-0.6,0.6c-1.5,1.6-3.4,3.3-5.5,5.1l-4.2,3.9c-2.6,2.3-4.6,4.1-6,5.2c-0.1,0-0.1,0.1-0.2,0.1
					c-2.1,1-4.6,2-7.6,2.9c-3.4,1-7.4,1.9-11.8,2.7c-2.6,0.5-6.6,1.2-12,2c-6.4,0.9-10.9,1.5-13.5,1.8c-1.4,0.2-2.8,0.3-4.1,0.4
					l-8.6-1.2c-13.3-1.7-24.1-3.1-32.2-4c-0.7-0.1-1.4-0.1-2-0.2c-1.8-0.2-3.4-0.4-4.9-0.5c-0.3-1.2-0.7-2.1-1.2-2.8
					c-0.1-0.2-0.3-0.4-0.5-0.5c-0.6-0.6-1.3-1.2-2.2-1.7c-0.6-0.4-1.5-0.8-2.7-1.2c-0.2-0.1-0.3-0.1-0.5-0.2
					c-0.3-0.1-0.6-0.2-0.8-0.3c-2.5-0.9-4.5-1.5-5.8-1.8c-1.2-0.3-2.1-0.1-2.7,0.3c-0.4,0.4-0.7,0.9-0.8,1.6
					c-0.2,0.8-0.4,1.9-0.5,3.2c-0.8,0.1-2.8,0.3-6,0.8c-2.6,0.3-4.7,0.4-6.4,0.4c-0.8,0-1.9-0.2-3.3-0.4c-0.8-0.1-1.8-0.3-2.8-0.4
					c-2.6-0.5-4.6-0.7-6.1-0.6c-1.6,0.1-3.7,0.5-6.1,1.2c-2.6,0.7-4.3,1.2-5.3,1.4c-0.3,0.1-0.5,0.1-0.7,0.1c-2.3,0.5-5,0.7-7.9,0.7
					c-1.9,0-4.5-0.2-7.9-0.6l-31.2-2.9c-1-0.1-1.5,0.2-1.7,0.7c-0.1,0.4,0.1,0.7,0.4,1l0.1,0c0.4,0.2,0.8,0.3,1.3,0.4l9.9,0.9
					l19.1,1.6l6.9,0.6c0.3,0,0.5,0.1,0.8,0.1c4.4,0.4,7.8,0.3,10.1-0.2c0.1,0,0.2-0.1,0.4-0.1c0.2-0.1,0.4-0.1,0.7-0.2
					c0.9-0.3,2.1-0.6,3.5-1.1c2-0.7,3.5-1.1,4.6-1.3c1.9-0.4,4.2-0.4,6.9-0.1c1.2,0.1,3,0.3,5.2,0.6c0.6,0.1,1.2,0.1,1.8,0.2
					c4.5,0.4,9.1,0.3,13.7-0.5c0,0.2-0.1,0.5-0.1,0.8c0,0.4-0.1,0.9-0.1,1.3l-0.1,2.4l-0.3,4.6c-0.1,0.7-0.2,1.4-0.3,2.3
					c-0.1,0.8-0.3,1.7-0.4,2.8c-0.2,1.2-0.4,2.5-0.7,4c-0.4,2.8-0.5,5.3-0.3,7.4c0,0.3,0.1,0.5,0.1,0.8c-0.6,0-1.2,0-1.8,0
					c-3.4,0-6.9,0.2-10.3,0.4c-6.5,0.3-12.9,0.9-19.2,1.8c-5.2,0.7-10.4,1.6-15.6,2.7c-3.7,0.8-6.3,1.3-7.7,1.6
					c-0.6,0.1-0.9,0.2-1.1,0.2c-3.4,0.6-6.3,0.8-8.9,0.8c-1.5,0-3.4-0.2-5.8-0.5c-3.2-0.3-5.1-0.5-5.8-0.6c-1-0.1-1.9-0.1-2.8-0.1
					c-3.1,0-5.7,0.4-7.9,1.3c-0.3,0.1-0.5,0.2-0.8,0.3c-0.7,0.4-1.1,0.8-1,1.3c0.1,0.3,0.4,0.5,0.8,0.6c0.4,0,0.8,0,1.1-0.1
					c2.4-0.7,4.8-1.1,7.3-1.3c0.6,0,1.2-0.1,1.8-0.1c0.4,0,0.9,0,1.5,0.1c1.3,0.1,3,0.2,5,0.5c2.9,0.3,5.1,0.5,6.5,0.6
					c2.7,0.1,5.9-0.2,9.4-0.8c0.1,0,0.3-0.1,0.6-0.1c1.3-0.3,4.2-0.8,8.7-1.8c4.9-1,9.9-1.9,14.9-2.5c6.3-0.9,12.6-1.5,19-1.8
					c1.8-0.1,3.7-0.2,5.6-0.2c2.1-0.1,4.1-0.1,6.2-0.1c0.2,0,0.5,0,0.7,0c0.1,0.6,0.1,1.1,0.1,1.4c0,0.1-0.1,0.5-0.2,1.1
					c-0.1,0.4-0.1,0.8-0.1,1.1c0.2,1.1,1.2,1.9,3.1,2.5c2.7,0.8,5.3,1.1,8,0.8c0.3,0,0.5-0.1,0.8-0.1c1.4-0.2,2.7-0.6,4.1-1.1
					c1.4-0.5,2.4-1.1,3-1.9c0.7-0.9,1.1-2.4,1.1-4.4c0-0.4,0.1-0.9,0.1-1.3l30.4-4.6c14.8-2.2,25.5-3.6,32.2-4.2
					c7.4-0.6,14.6-1,21.5-1.1c0,0-0.1,0.1-0.1,0.2c0.6-0.1,1.2-0.1,1.8-0.2c0.9,0,1.8,0.1,2.6,0.2c1.7,0.2,3.1,0.6,4.3,1.1
					c0.3,0.1,0.5,0.2,0.6,0.4l1.5,0.1c0.4,0,0.8,0,1.2,0.1c1.6,0.1,3,0.3,4,0.5c0.9,0.3,2.3,0.8,4,1.6c0.3,0.1,1.1,0.4,2.6,0.9
					c1,0.3,1.9,0.7,2.5,1.1c0.3,0.1,0.6,0.3,1,0.6c0.3,0.2,0.7,0.4,1.2,0.8c1.5,0.9,3.2,1.4,5.2,1.6c1.2,0.1,2.1-0.2,2.6-0.8
					c0.3-0.3,0.5-0.9,0.6-1.8c0.1-0.9,0.2-1.7,0.3-2.3c0.1-0.4,0.1-0.7,0.2-0.9c0.3-0.5,0.5-1.2,0.4-2.1c-0.1-1-0.2-1.7-0.2-2.2
					c0-0.4,0.1-1,0.2-1.7c0.2-0.9,0.3-1.5,0.3-1.8c0.1-1.5-0.2-2.5-1-3.2c-0.3-0.2-0.6-0.4-0.8-0.5c0.1-1.6-0.1-4.1-0.5-7.6
					c1.1-0.3,1.8-0.5,2.3-0.6c0.9-0.4,1.5-1,1.7-1.7c0.1-0.4,0.2-1,0.1-2L56.1-192.5 M55.3-181.3c0.1,0.9,0,1.5-0.1,1.8
					c-0.2,0.5-0.7,0.9-1.4,1.2c-0.1,0-0.3,0.1-0.6,0.2c-0.3,0.1-0.7,0.2-1.3,0.3c-1.7,0.4-3.3,0.9-4.6,1.6c-1,0.5-1.7,1.1-1.9,1.7
					c-0.3,0.7-0.3,1.4,0.1,2.2c0.4,0.7,0.9,1.3,1.6,1.8c0.5,0.3,1.2,0.7,2.1,1.3c0.8,0.5,1.5,1,1.9,1.5c0.2,0.3,0.6,0.8,1,1.4
					c0.4,0.3,0.7,0.5,1.1,0.5c0.2,0,0.3,0,0.5-0.1l-1.1,8.3c-0.1,0.5-0.2,1.9-0.4,4.3c-0.7,0.1-1.4,0-2.2-0.2
					c-0.4-0.1-1.1-0.4-2.1-0.8l-0.7-0.3l-8.8-3.9c-1-0.5-1.8-0.8-2.3-0.9c-0.7-0.2-1.4-0.4-2.3-0.5c-0.3,0.1-0.6,0.2-1.1,0.1
					c-0.5-0.2-0.9-0.3-1.2-0.4c-1.3,0-2.3-0.1-2.9-0.3l-1.8-0.6c-0.7-0.2-1.7-0.3-2.9-0.3c-0.1,0-0.2,0-0.3,0c-1.6,0-2.4,0-2.6-0.1
					c-0.7-0.1-1.3-0.2-1.7-0.2c-0.4,0-0.7,0-1.1,0c-1,0.1-1.8,0.1-2.3,0.1l-6.4,0.1c-0.5,0.1-0.8,0-1-0.3
					c-4.7,0.1-10.1,0.6-16.4,1.3c-10,1.1-23.6,3.1-40.8,5.8c-4.5,0.7-9.3,1.5-14.2,2.4c-0.7,0.1-1.5,0.2-2.2,0.3
					c0.1-2.2,0.2-4.1,0.3-5.8c0-0.6,0-1.1,0-1.6c0-0.6,0-1.1,0-1.6c0-0.1,0-0.1,0-0.1c0-2.5,0-4.9-0.1-7.1c-0.1-1.6-0.2-3.1-0.3-4.4
					c0-0.2,0-0.3,0-0.5c0-0.2-0.1-0.4-0.1-0.7c0.7,0.1,1.4,0.2,2.2,0.3c1,0.1,2.1,0.3,3.3,0.4c4.5,0.5,10.2,1.2,17.2,1.9
					c5.7,0.6,10.8,1.3,15.3,1.9c-0.1,0-0.3,0-0.4,0c-0.1,0-0.3,0-0.4,0.1c0,0,0.1,0,0.1,0c0.4,0,1.1,0.1,2,0.3c1,0.3,2,0.5,3,0.6
					c0.3,0,0.8,0.1,1.5,0.1c0.6,0,1.1,0,1.4,0.1c0.1,0,0.4,0.1,0.6,0.2c0.3-0.1,0.5-0.1,0.8-0.1c0.8,0.1,1.5,0.2,2.2,0.3
					c0.2,0,0.3,0.1,0.5,0.1l0.1-0.1c0.9-0.3,2.5-0.5,4.7-0.6c1.5-0.1,2.7-0.3,3.7-0.6c0.1-0.1,0.3-0.1,0.4-0.2
					c0.1,0,0.1-0.1,0.2-0.1c0.1-0.1,0.2-0.1,0.2-0.2c0.7-0.4,1.1-0.6,1.4-0.6c0.3,0,0.5,0,0.8,0.2c0.1,0.1,0.2,0.1,0.3,0.3
					c0.5-0.1,1-0.2,1.5-0.4c1.7-0.4,3.7-0.7,6.1-1c1.4-0.2,3.4-0.5,6.1-0.9c4.9-0.7,9.8-1.9,14.7-3.4c-0.2,0.1-0.3,0.2-0.4,0.3
					l1.7-0.6c2.1-0.7,3.7-1.4,4.8-1.9c1.2-0.6,2.8-1.5,4.7-2.8c0.3-0.2,0.5-0.3,0.8-0.4l1.9-2.1l0.6-0.4l0.4-0.8
					c0.2-0.2,0.5-0.4,0.9-0.6l0.8-0.4c0-0.1-0.1-0.1-0.1-0.2l1.5-1.4c1.1-1,2.1-1.8,2.9-2.6c1.1-1,2-1.9,2.7-2.6l4.5-4.1
					c0.6,0.4,1.1,0.9,1.4,1.6c0.3,0.7,0.6,1.7,0.7,3.1L55.3-181.3 M-67.2-173.5c0.1,0.2,0.2,0.4,0.3,0.6c0.1,0.3,0,0.6-0.1,0.9
					c0,0.1,0,0.1,0,0.1c0,0.1,0,0.1,0,0.2c0.1,1.3,0.2,2.7,0.3,4c0.1,2.5,0.1,5.1,0.1,7.6c0,2.8-0.1,5.6-0.3,8.4h0
					c-0.1,0.7-0.2,1.4-0.3,1.9l0.3-0.1c-0.1,0.8-0.2,1.6-0.3,2.4c-0.1,0.9-0.3,1.6-0.6,1.9c-0.4,0.4-1.1,0.7-2.1,0.9
					c-1.3,0.4-2.5,0.7-3.4,1c-0.2,0-0.4,0.1-0.7,0.1c-0.5,0.1-0.9,0.1-1.2,0.1c-1.7,0.1-4.1-0.2-7.1-1c-0.5-0.1-0.8-0.3-0.9-0.5
					c-0.2-0.2-0.2-0.5-0.1-0.9c0.2-0.4,0.3-0.8,0.4-1c0.1-0.5,0-1.4-0.4-2.7c-0.2-0.7-0.3-1.6-0.3-2.6c-0.1-1.5,0-3.4,0.3-5.6l0.8-6
					l0.9-7.6c0-0.4,0.1-0.8,0.1-1.2c0-0.1,0-0.2,0-0.3c0.1-1.3,0.1-2.5,0.2-3.4c0.1-0.8,0.1-1.5,0.2-2.1c0.1-1.6,0.3-2.9,0.7-3.9
					c1.7,0.1,4.1,0.8,7.2,1.9c0.3,0.1,0.7,0.2,1,0.3c0.1,0,0.2,0.1,0.3,0.1c1.1,0.5,2,0.9,2.7,1.4c0.6,0.4,1.1,0.9,1.3,1.4
					c0.2,0.3,0.4,0.7,0.6,1.2c-0.1,0-0.1-0.1-0.2-0.1c-0.2,0-0.3,0-0.5,0c0.2,0.1,0.3,0.1,0.4,0.3c0.2,0.2,0.4,0.6,0.5,1.1
					c0,0,0,0.1,0,0.2c0,0.1,0,0.2,0,0.3c0,0,0.1,0,0.1,0C-67.2-173.8-67.2-173.6-67.2-173.5 M-77.4-149.9c-0.1,0.3-0.1,0.6,0,0.8
					c0.1,0.3,0.3,0.7,0.6,1c0.3,0.4,0.7,0.7,1.1,0.9c0.4,0.1,1,0.2,1.8,0.1c0.1,0,0.3,0,0.4,0c0.8-0.1,1.5-0.4,2.1-0.7
					c0-0.3,0.1-0.6,0.3-0.9c0.3-1,0.6-2.4,0.9-4.4c-0.2-0.2-0.3-0.3-0.5-0.5c-0.6-0.5-1.2-0.8-1.8-1c-0.1,0-0.4,0-0.9-0.1
					c0,0-0.1,0-0.1,0c-0.1,0-0.2-0.1-0.3-0.1c-0.5-0.1-0.8-0.1-0.9-0.1c-0.3,0.1-0.6,0.4-0.9,0.9c-0.4,1-0.7,1.6-0.8,1.9
					c-0.4,0.5-0.7,0.8-0.8,1.1C-77.4-150.5-77.4-150.2-77.4-149.9 M-73.5-152.5c0.2,0,0.6,0.1,1.2,0.4c0.3,0.1,0.5,0.2,0.7,0.4
					c0.2,0.2,0.3,0.4,0.3,0.7c0,0.1,0,0.3-0.2,0.6c0,0.2,0,0.3-0.1,0.4c-0.2,0.1-0.3,0.2-0.4,0.3c-0.6,0.3-1.1,0.5-1.5,0.6
					c-0.1,0-0.2,0-0.3,0.1c-0.6,0.1-1.1,0-1.5-0.1c0.4-1.2,0.8-2.1,1.2-2.8l0.2-0.3C-73.9-152.5-73.7-152.5-73.5-152.5L-73.5-152.5z
					"/>
				<path class="st3" d="M-72.3-152.2c-0.5-0.2-0.9-0.4-1.2-0.4h-0.1c-0.2,0-0.3,0-0.3,0.1l-0.2,0.3c-0.4,0.7-0.8,1.6-1.2,2.8
					c0.4,0.1,0.9,0.2,1.5,0.1c0.1,0,0.1-0.1,0.3-0.1c0.5-0.1,1-0.3,1.5-0.6c0.1-0.1,0.2-0.2,0.4-0.3c0.1-0.1,0.1-0.2,0.1-0.4
					c0.1-0.3,0.2-0.5,0.2-0.6c0-0.3-0.1-0.5-0.3-0.7C-71.8-151.9-72.1-152.1-72.3-152.2z"/>
				<path class="st4" d="M-65-152c0.8-0.1,1.5-0.3,2.2-0.3c-0.1-0.2-0.1-0.4-0.2-0.6c-0.9-2.4-1.5-4-1.7-4.9
					C-64.8-156-64.9-154.1-65-152 M-65.2-173.6c0,0.2,0,0.4,0.1,0.7c0,0.2,0,0.3,0,0.5c0.1,1.4,0.2,2.9,0.3,4.4
					c0.1,2.2,0.1,4.6,0.1,7.1c0,0,0,0.1,0,0.1c0,0.5,0,1,0,1.6c0.3-0.7,0.8-1.5,1.7-2.5c0.4-0.5,0.9-1,1.4-1.6
					c2.2-2.3,3.3-3.9,3.3-4.8c0-0.3-0.1-0.6-0.3-0.8c-0.1-0.2-0.3-0.4-0.6-0.6c-0.6-0.4-0.9-0.9-0.9-1.4c0-0.7,0.1-1.3,0.4-2
					c-1.2-0.1-2.3-0.3-3.3-0.4C-63.8-173.5-64.5-173.5-65.2-173.6z"/>
				<path class="st5" d="M18.7-163.5c-0.5-0.2-0.7-0.4-0.8-0.4c-0.5,0-2-0.2-4.6-0.5c-2.6-0.3-4.1-0.5-4.6-0.5
					c-4.3,0-10.3,0.6-18,1.8c-7.7,1.2-12.4,1.8-14,1.8c-0.4,0-1.2,0.1-2.4,0.4c-1.2,0.3-2,0.4-2.5,0.4c-0.4,0-1,0.2-1.8,0.5
					c-0.8,0.3-1.4,0.4-1.9,0.4c-0.5,0-1,0.1-1.7,0.3c-0.7,0.2-1.3,0.3-1.8,0.3c-0.4,0-1.1-0.2-2-0.5s-1.6-0.5-2.1-0.5
					c-3.2,0.9-4.8,1.4-5,1.4c-0.5,0-0.9,0.2-1.3,0.5c-0.4,0.4-0.8,0.6-1.3,0.6h-1c0.5,0.2,0.7,0.6,0.6,1.1c-0.1,0.5-0.4,1.1-1.1,1.8
					c17.2-2.8,30.8-4.7,40.8-5.8c6.2-0.7,11.7-1.2,16.4-1.3c0.2,0.2,0.5,0.3,1,0.3l6.4-0.1c0.5,0,1.3-0.1,2.3-0.1c0.3,0,0.7,0,1.1,0
					c0.4,0,1,0.1,1.7,0.2c0.2,0,1.1,0.1,2.6,0.1c-0.8-0.3-1.2-0.5-1.3-0.5c-0.4,0-0.8-0.2-1.2-0.6s-0.8-0.6-1.3-0.6
					C19.5-163.2,19.1-163.3,18.7-163.5z"/>
				<path class="st6" d="M35.9-180.5c-0.3,0.1-0.5,0.3-0.8,0.4c-1.9,1.3-3.5,2.2-4.7,2.8c-1.2,0.6-2.8,1.2-4.8,1.9l-1.7,0.6
					c0.1-0.1,0.3-0.1,0.4-0.3c-4.9,1.5-9.8,2.6-14.7,3.4c-2.7,0.4-4.8,0.6-6.1,0.9c-2.4,0.3-4.4,0.7-6.1,1c-0.5,0.1-1,0.3-1.5,0.4
					c-0.1-0.1-0.1-0.2-0.3-0.3c-0.2-0.2-0.5-0.2-0.8-0.2c-0.3,0-0.7,0.2-1.4,0.6c-0.1,0-0.2,0.1-0.2,0.2c-0.1,0-0.1,0-0.2,0.1
					c-0.2,0.1-0.3,0.1-0.4,0.2c-0.9,0.3-2.2,0.5-3.7,0.6c-2.3,0.1-3.9,0.3-4.7,0.6l-0.1,0.1c-0.2,0-0.3-0.1-0.5-0.1
					c-0.7-0.1-1.4-0.2-2.2-0.3c-0.2,0-0.5,0-0.8,0.1c-0.3-0.1-0.5-0.1-0.6-0.2c-0.4-0.1-0.9-0.1-1.4-0.1c-0.7,0-1.2-0.1-1.5-0.1
					c-0.9-0.1-1.9-0.3-3-0.6c-0.9-0.2-1.6-0.3-2-0.3c0,0-0.1,0-0.1,0c0.1,0,0.3-0.1,0.4-0.1c0.1,0,0.3,0,0.4,0
					c-4.5-0.6-9.6-1.2-15.3-1.9c-7-0.8-12.7-1.4-17.2-1.9c-0.2,0.7-0.4,1.3-0.4,2c0,0.5,0.3,1,0.9,1.4c0.2,0.2,0.4,0.4,0.6,0.6
					c0.2,0.2,0.3,0.5,0.3,0.8c0,0.9-1.1,2.5-3.3,4.8c-0.5,0.6-1,1.1-1.4,1.6c-0.8,1-1.4,1.8-1.7,2.5c0,0.5-0.1,1,0,1.6
					c0.3,0.8,0.8,2.4,1.7,4.9c0.1,0.2,0.1,0.3,0.2,0.6c5-0.8,9.7-1.6,14.2-2.4c0.6-0.7,0.9-1.3,1.1-1.8c0.1-0.5-0.1-0.9-0.6-1.1h1
					c0.4,0,0.9-0.2,1.3-0.6c0.4-0.4,0.8-0.5,1.3-0.5c0.2,0,1.8-0.5,5-1.4c0.5,0,1.1,0.2,2.1,0.5s1.6,0.5,2,0.5
					c0.5,0,1.1-0.1,1.8-0.3c0.7-0.2,1.2-0.3,1.7-0.3c0.5,0,1.1-0.1,1.9-0.4c0.8-0.3,1.4-0.5,1.8-0.5c0.5,0,1.3-0.1,2.5-0.4
					c1.2-0.3,2-0.4,2.4-0.4c1.6,0,6.3-0.6,14-1.8c7.7-1.2,13.8-1.8,18-1.8c0.5,0,2,0.2,4.6,0.5c2.6,0.3,4.1,0.5,4.6,0.5
					c0.1,0,0.3,0.1,0.8,0.4c0.4,0.2,0.8,0.3,1.3,0.3c0.5,0,0.9,0.2,1.3,0.6s0.8,0.6,1.2,0.6c0.1,0,0.5,0.2,1.3,0.5
					c0.1,0,0.2,0,0.3,0c1.2,0,2.1,0.1,2.9,0.3l1.8,0.6c0.7,0.1,1.6,0.2,2.9,0.3c0.3,0.1,0.7,0.2,1.2,0.4c0.4,0.1,0.8,0,1.1-0.1
					c0.9,0.1,1.6,0.3,2.3,0.5c0.5,0.1,1.3,0.4,2.3,0.9l8.8,3.9c1-0.6,2-1.2,2.9-1.7c-0.1,0-0.4,0-0.9,0c-0.3,0-0.5-0.3-0.5-0.9
					c0-1.1-0.8-2.3-2.4-3.4c-1.5-1.1-3.4-2-5.7-2.7l0.2-1.4c1.2-0.3,2.5-0.7,4-1.3c-0.2-0.7-0.6-1.3-1.3-1.7
					c-0.9-0.5-1.3-0.8-1.4-0.8l3.1-3c-0.1-0.4-0.3-0.7-0.4-0.8c-0.2-0.3-0.7-0.4-1.4-0.4c-3.1,1.1-5.2,1.7-6.3,1.7
					c0.4-0.6,1.8-2.5,4-5.5c2.1-2.8,3.5-4.7,4-5.6l-0.6-0.4c-0.1,0.2-0.6,0.6-1.4,1.3c-0.9,0.7-1.5,1.1-1.8,1.3
					c0.7-1,1.6-3.3,2.8-6.8c0.2-0.7,0.4-1.3,0.6-1.9c-0.8,0.8-1.8,1.6-2.9,2.6l-1.5,1.4c0,0,0.1,0.1,0.1,0.2l-0.8,0.4
					c-0.5,0.2-0.8,0.4-0.9,0.6l-0.4,0.8l-0.6,0.4L35.9-180.5z"/>
				<path class="st7" d="M55.2-179.5c0.1-0.3,0.2-0.9,0.1-1.8l-1.1-9.6c-0.1-1.4-0.4-2.4-0.7-3.1c-0.4-0.7-0.9-1.2-1.4-1.6l-4.5,4.1
					c-0.7,0.7-1.6,1.5-2.7,2.6c-0.2,0.6-0.4,1.2-0.6,1.9c-1.2,3.5-2.1,5.7-2.8,6.8c0.3-0.2,0.9-0.6,1.8-1.3c0.9-0.7,1.3-1.1,1.4-1.3
					l0.6,0.4c-0.6,0.9-1.9,2.8-4,5.6c-2.3,3-3.6,4.9-4,5.5c1.1,0,3.2-0.6,6.3-1.7c0.7,0,1.2,0.1,1.4,0.4c0.1,0.1,0.3,0.4,0.4,0.8
					l-3.1,3c0,0,0.5,0.3,1.4,0.8c0.7,0.4,1.1,1,1.3,1.7c-1.5,0.6-2.8,1-4,1.3l-0.2,1.4c2.3,0.7,4.2,1.6,5.7,2.7
					c1.6,1.2,2.4,2.3,2.4,3.4c0,0.6,0.2,0.9,0.5,0.9c0.5,0,0.8,0,0.9,0c-0.9,0.5-1.8,1.1-2.9,1.7l0.7,0.3c1,0.4,1.7,0.7,2.1,0.8
					c0.8,0.2,1.5,0.3,2.2,0.2c0.2-2.4,0.3-3.8,0.4-4.3l1.1-8.3c-0.2,0.1-0.3,0.1-0.5,0.1c-0.4,0-0.7-0.2-1.1-0.5
					c-0.4-0.6-0.8-1.1-1-1.4c-0.4-0.5-1-1-1.9-1.5c-0.9-0.5-1.6-0.9-2.1-1.3c-0.7-0.5-1.2-1.1-1.6-1.8c-0.4-0.8-0.5-1.5-0.1-2.2
					c0.3-0.6,0.9-1.2,1.9-1.7c1.3-0.7,2.8-1.2,4.6-1.6c0.5-0.1,0.9-0.2,1.3-0.3c0.3-0.1,0.5-0.2,0.6-0.2
					C54.5-178.6,55-179,55.2-179.5z"/>
			</g>
		</g>
	</g>
</g>
</svg>
